<svg width="28" height="28" viewBox="0 0 28 28" fill="none" xmlns="http://www.w3.org/2000/svg">
<path fill-rule="evenodd" clip-rule="evenodd" d="M18.3352 19.8026H9.91187C9.42887 19.8026 9.03687 19.4106 9.03687 18.9276C9.03687 18.4446 9.42887 18.0526 9.91187 18.0526H18.3352C18.8182 18.0526 19.2102 18.4446 19.2102 18.9276C19.2102 19.4106 18.8182 19.8026 18.3352 19.8026Z" fill="#FAFAFA"/>
<path fill-rule="evenodd" clip-rule="evenodd" d="M18.3352 14.9184H9.91187C9.42887 14.9184 9.03687 14.5264 9.03687 14.0434C9.03687 13.5604 9.42887 13.1684 9.91187 13.1684H18.3352C18.8182 13.1684 19.2102 13.5604 19.2102 14.0434C19.2102 14.5264 18.8182 14.9184 18.3352 14.9184Z" fill="#FAFAFA"/>
<path fill-rule="evenodd" clip-rule="evenodd" d="M13.1255 10.0455H9.91138C9.42838 10.0455 9.03638 9.65347 9.03638 9.17047C9.03638 8.68747 9.42838 8.29547 9.91138 8.29547H13.1255C13.6085 8.29547 14.0005 8.68747 14.0005 9.17047C14.0005 9.65347 13.6085 10.0455 13.1255 10.0455Z" fill="#FAFAFA"/>
<mask id="mask0_266_4489" style="mask-type:alpha" maskUnits="userSpaceOnUse" x="3" y="2" width="22" height="24">
<path fill-rule="evenodd" clip-rule="evenodd" d="M3.5 2.33356H24.6922V25.5617H3.5V2.33356Z" fill="white"/>
</mask>
<g mask="url(#mask0_266_4489)">
<path fill-rule="evenodd" clip-rule="evenodd" d="M18.5603 4.08331L9.58976 4.08798C6.87376 4.10431 5.24976 5.78431 5.24976 8.58315V19.3118C5.24976 22.1293 6.88892 23.8116 9.63176 23.8116L18.6023 23.8081C21.3183 23.7918 22.9423 22.1095 22.9423 19.3118V8.58315C22.9423 5.76565 21.3043 4.08331 18.5603 4.08331ZM9.63292 25.5616C5.96492 25.5616 3.49976 23.0498 3.49976 19.3118V8.58315C3.49976 4.81131 5.88792 2.36015 9.58392 2.33798L18.5591 2.33331H18.5603C22.2283 2.33331 24.6923 4.84515 24.6923 8.58315V19.3118C24.6923 23.0825 22.3041 25.5348 18.6081 25.5581L9.63292 25.5616Z" fill="#FAFAFA"/>
</g>
</svg>
