<svg width="24" height="24" viewBox="0 0 24 24" fill="none" xmlns="http://www.w3.org/2000/svg">
<path d="M4.5 21C4.08333 21 3.72917 20.8542 3.4375 20.5625C3.14583 20.2708 3 19.9167 3 19.5V4.5C3 4.08333 3.14583 3.72917 3.4375 3.4375C3.72917 3.14583 4.08333 3 4.5 3H19.5C19.9167 3 20.2708 3.14583 20.5625 3.4375C20.8542 3.72917 21 4.08333 21 4.5V19.5C21 19.9167 20.8542 20.2708 20.5625 20.5625C20.2708 20.8542 19.9167 21 19.5 21H4.5ZM10.25 19.5V12.75H4.5V19.5H10.25ZM11.75 19.5H19.5V12.75H11.75V19.5ZM4.5 11.25H19.5V4.5H4.5V11.25Z" fill="white"/>
</svg>
